<?xml version="1.0" encoding="UTF-8" standalone="no"?>
<!-- Created with Inkscape (http://www.inkscape.org/) -->

<svg
   xmlns:dc="http://purl.org/dc/elements/1.1/"
   xmlns:cc="http://creativecommons.org/ns#"
   xmlns:rdf="http://www.w3.org/1999/02/22-rdf-syntax-ns#"
   xmlns:svg="http://www.w3.org/2000/svg"
   xmlns="http://www.w3.org/2000/svg"
   xmlns:sodipodi="http://sodipodi.sourceforge.net/DTD/sodipodi-0.dtd"
   xmlns:inkscape="http://www.inkscape.org/namespaces/inkscape"
   version="1.1"
   id="svg2"
   xml:space="preserve"
   width="810"
   height="705.45081"
   viewBox="0 0 810 705.45081"
   sodipodi:docname="publicdomainq-japanese_katana_sword_samurai.svg"
   inkscape:version="0.92.2 (5c3e80d, 2017-08-06)"
   inkscape:export-filename="/media/juhele/data_2TB/_GRAFIKA/Publicdomainq/publicdomainq-japanese_katana_sword_samurai.svg.png"
   inkscape:export-xdpi="96"
   inkscape:export-ydpi="96"><title
     id="title167">Japanese katana samurai sword</title><metadata
     id="metadata8"><rdf:RDF><cc:Work
         rdf:about=""><dc:format>image/svg+xml</dc:format><dc:type
           rdf:resource="http://purl.org/dc/dcmitype/StillImage" /><dc:title>Japanese katana samurai sword</dc:title><dc:description>This image was adapted from a picture posted to publicdomainq.net. All of the images on these sites are in the public domain i.e. CC0. This site is only in Japanese but can be easily navigated with Google Translate.</dc:description><dc:subject><rdf:Bag><rdf:li>Japanese</rdf:li><rdf:li>katana</rdf:li><rdf:li>samurai</rdf:li><rdf:li>sword</rdf:li><rdf:li>blade</rdf:li><rdf:li>sharp</rdf:li><rdf:li>warrior</rdf:li><rdf:li>battle</rdf:li><rdf:li>Japan</rdf:li><rdf:li>weapon</rdf:li><rdf:li>steel</rdf:li></rdf:Bag></dc:subject></cc:Work></rdf:RDF></metadata><defs
     id="defs6"><clipPath
       clipPathUnits="userSpaceOnUse"
       id="clipPath22"><path
         d="m 3120.05,2497.07 104.4,-40.47 c 0,0 15.18,16.7 41.57,45.74 -56.53,71.44 -113.04,118.46 -152.27,146.25 -9.98,-9.43 -19.96,-18.8 -29.9,-28.03 l 36.2,-123.49"
         id="path20"
         inkscape:connector-curvature="0" /></clipPath><linearGradient
       x1="0"
       y1="0"
       x2="1"
       y2="0"
       gradientUnits="userSpaceOnUse"
       gradientTransform="matrix(147.043,-158.21,-115.536,-107.381,3142.46,2675.28)"
       spreadMethod="pad"
       id="linearGradient30"><stop
         style="stop-opacity:1;stop-color:#231f20"
         offset="0"
         id="stop24" /><stop
         style="stop-opacity:1;stop-color:#bdbcbd"
         offset="0.5"
         id="stop26" /><stop
         style="stop-opacity:1;stop-color:#231f20"
         offset="1"
         id="stop28" /></linearGradient><clipPath
       clipPathUnits="userSpaceOnUse"
       id="clipPath78"><path
         d="M 194.008,68.0273 C 313.996,141.242 1427.46,780.832 3064.89,2374 l 0.8,0.42 c -37.15,36.16 -94.01,90.51 -94.01,90.51 0,0 -1375.52,-1424.25 -2911.6409,-2408.4339 C 147.285,42.2969 194.008,68.0273 194.008,68.0273"
         id="path76"
         inkscape:connector-curvature="0" /></clipPath><linearGradient
       x1="0"
       y1="0"
       x2="1"
       y2="0"
       gradientUnits="userSpaceOnUse"
       gradientTransform="matrix(-579.16,769.477,3064.36,2306.44,363.628,-380.117)"
       spreadMethod="pad"
       id="linearGradient90"><stop
         style="stop-opacity:1;stop-color:#ffffff"
         offset="0"
         id="stop80" /><stop
         style="stop-opacity:1;stop-color:#8f8d8d"
         offset="0.280899"
         id="stop82" /><stop
         style="stop-opacity:1;stop-color:#ffffff"
         offset="0.578652"
         id="stop84" /><stop
         style="stop-opacity:1;stop-color:#605d5e"
         offset="0.85955"
         id="stop86" /><stop
         style="stop-opacity:1;stop-color:#ffffff"
         offset="1"
         id="stop88" /></linearGradient><clipPath
       clipPathUnits="userSpaceOnUse"
       id="clipPath100"><path
         d="m 3066.49,2565.22 -94.81,-100.29 c 0,0 108.99,-104.16 123.75,-120.04 l 99.63,96.96 c 0,0 -67.75,84.15 -128.57,123.37"
         id="path98"
         inkscape:connector-curvature="0" /></clipPath><linearGradient
       x1="0"
       y1="0"
       x2="1"
       y2="0"
       gradientUnits="userSpaceOnUse"
       gradientTransform="matrix(123.275,-132.637,-143.256,-133.145,3094.21,2590.99)"
       spreadMethod="pad"
       id="linearGradient108"><stop
         style="stop-opacity:1;stop-color:#231f20"
         offset="0"
         id="stop102" /><stop
         style="stop-opacity:1;stop-color:#bdbcbd"
         offset="0.5"
         id="stop104" /><stop
         style="stop-opacity:1;stop-color:#231f20"
         offset="1"
         id="stop106" /></linearGradient><clipPath
       clipPathUnits="userSpaceOnUse"
       id="clipPath118"><path
         d="m 224.531,38.918 c 119.981,73.211 1131.019,626.328 2870.899,2305.972 -4.1,4.41 -15.47,15.63 -29.74,29.53 l -0.8,-0.42 C 1427.46,780.832 313.996,141.242 194.008,68.0273 c 0,0 -46.723,-25.7304 -133.9689,-11.5312 C 40.0547,43.6836 20.0508,30.9297 0,18.2617 c 0,0 104.547,-52.5586 224.531,20.6563"
         id="path116"
         inkscape:connector-curvature="0" /></clipPath><linearGradient
       x1="0.0056179999"
       y1="0"
       x2="1"
       y2="0"
       gradientUnits="userSpaceOnUse"
       gradientTransform="matrix(413.75,802.389,1533.07,-790.527,391.646,821.426)"
       spreadMethod="pad"
       id="linearGradient126"><stop
         style="stop-opacity:1;stop-color:#c3c2c3"
         offset="0"
         id="stop120" /><stop
         style="stop-opacity:1;stop-color:#d3d2d2"
         offset="0.449438"
         id="stop122" /><stop
         style="stop-opacity:1;stop-color:#7e7b7c"
         offset="1"
         id="stop124" /></linearGradient><clipPath
       clipPathUnits="userSpaceOnUse"
       id="clipPath136"><path
         d="m 3095.43,2344.89 c -0.97,1.05 -2.38,2.5 -4.11,4.25 -19.51,-13.31 -38.06,-31.19 -56.47,-39.32 -29.89,-13.18 -43.06,-30.56 -62.02,-56.02 -19.1,-25.62 -42.8,-35.64 -65.8,-55.76 -21.46,-18.8 -31.12,-42.58 -54.79,-60.41 -28.41,-21.4 -49.5,-37.96 -72.13,-64.54 -20.97,-24.61 -48.66,-38.44 -70.63,-61.33 -16.01,-16.69 -31.26,-34.67 -49.74,-49.68 -33.29,-27.06 -76.38,-62.75 -104.48,-98.96 -14.98,-4.96 -28.9,-13.86 -41.15,-30.35 -18.59,-25 -38.94,-60.66 -66.26,-77.3 -25.21,-15.31 -47.06,-21.37 -67.72,-43.09 -18.65,-19.59 -37.3,-42.04 -57.24,-60.15 -24.32,-22.13 -52.03,-32.02 -72.48,-59.46 -18.83,-25.31 -43.43,-41.54 -68.9,-60.58 -20.94,-15.67 -33.51,-36.08 -52.37,-53.08 -23.27,-20.93 -44.59,-36.79 -65.39,-60.77 -22.59,-25.98 -62.18,-33.89 -88.21,-57.54 -21.04,-19.13 -33.31,-38.98 -57.02,-56.42 -24.54,-18.05 -47.85,-34.22 -70.26,-55.04 -18.25,-16.96 -34.97,-36.52 -53.81,-50.02 -18.95,-13.57 -41.5,-28.96 -55.94,-48.54 -7.73,-10.48 -10.76,-21.1 -21.53,-27.84 -12.38,-7.75 -29.92,-6.75 -43.1,-13.94 -22.71,-12.39 -30.76,-33.47 -44.16,-53.05 -20.76,-6.06 -42.47,-12.17 -59.26,-23.2 -46.37,-30.41 -71.97,-82.172 -120.27,-109.332 -46.19,-25.965 -84.89,-65.203 -132.63,-92.129 -46.45,-26.191 -74.69,-74.578 -119.45,-102.644 -20.67,-12.969 -43.45,-20.403 -61,-36.661 -17.02,-15.761 -30.6,-34.394 -51.1,-47.472 -18.45,-11.778 -41.68,-18.535 -57.85,-33.008 -19.02,-17.012 -35.512,-33.984 -56.758,-49.453 -24.785,-18.028 -50.89,-30.196 -71.304,-52.547 -25.762,-28.184 -61.532,-47.59 -92.075,-72.434 -0.796,-0.437 -1.558,-0.898 -2.375,-1.347 -17.257,-9.551 -35.8,-11.922 -52.668,-21.239 -21.457,-11.867 -36.828,-35.851 -58.085,-49.855 -20.438,-13.465 -41.29,-22.305 -59.805,-39.004 -19.375,-17.48 -40.027,-29.109 -67.008,-39.043 C 525.559,270.918 500.992,234.277 462.949,213.039 444.387,202.688 431.516,190.273 412.93,178.527 392.086,165.371 369.98,160.371 351.25,144.609 332.809,129.082 323.176,115.645 301.523,106.152 279.688,96.5938 263.766,89.4453 246.707,75.0703 228.879,60.0586 208.184,49.875 192.922,32.7539 c -3.524,-3.9453 -7.809,-9.375 -12.274,-15.6641 14.27,5.5665 28.961,12.7266 43.883,21.8282 119.981,73.211 1131.019,626.328 2870.899,2305.972"
         id="path134"
         inkscape:connector-curvature="0" /></clipPath><linearGradient
       x1="0.0056179999"
       y1="0"
       x2="1"
       y2="0"
       gradientUnits="userSpaceOnUse"
       gradientTransform="matrix(3141.83,2032.93,279.032,-431.235,-49.1739,344.278)"
       spreadMethod="pad"
       id="linearGradient144"><stop
         style="stop-opacity:1;stop-color:#828080"
         offset="0"
         id="stop138" /><stop
         style="stop-opacity:1;stop-color:#e4e4e4"
         offset="0.449438"
         id="stop140" /><stop
         style="stop-opacity:1;stop-color:#777475"
         offset="1"
         id="stop142" /></linearGradient></defs><sodipodi:namedview
     pagecolor="#ffffff"
     bordercolor="#666666"
     borderopacity="1"
     objecttolerance="10"
     gridtolerance="10"
     guidetolerance="10"
     inkscape:pageopacity="0"
     inkscape:pageshadow="2"
     inkscape:window-width="1920"
     inkscape:window-height="1140"
     id="namedview4"
     showgrid="false"
     inkscape:zoom="0.98987754"
     inkscape:cx="550.07599"
     inkscape:cy="335.21693"
     inkscape:window-x="0"
     inkscape:window-y="0"
     inkscape:window-maximized="1"
     inkscape:current-layer="g10"
     fit-margin-left="5"
     fit-margin-top="5"
     fit-margin-right="5"
     fit-margin-bottom="5" /><g
     id="g10"
     inkscape:groupmode="layer"
     inkscape:label="ink_ext_XXXXXX"
     transform="matrix(1.3333333,0,0,-1.3333333,5,700.45087)"><g
       id="g12"
       transform="matrix(0.14584807,0,0,0.14584807,0,-1.7148015e-5)"><path
         d="m 4096.44,3427.08 c 7.46,8.82 13.37,15.97 17.43,21.1 0,0 -14.33,53.46 -47.78,85.22 0,0 -72.93,65.8 -102.59,34.31 -2.03,-2.17 -6.12,-6.83 -11.97,-13.61 27.76,-7.62 90.52,-34.47 144.91,-127.02"
         style="fill:#858a9d;fill-opacity:1;fill-rule:nonzero;stroke:none"
         id="path14"
         inkscape:connector-curvature="0" /><g
         id="g16"><g
           id="g18"
           clip-path="url(#clipPath22)"><path
             d="m 3120.05,2497.07 104.4,-40.47 c 0,0 15.18,16.7 41.57,45.74 -56.53,71.44 -113.04,118.46 -152.27,146.25 -9.98,-9.43 -19.96,-18.8 -29.9,-28.03 l 36.2,-123.49"
             style="fill:url(#linearGradient30);fill-opacity:1;fill-rule:nonzero;stroke:none"
             id="path32"
             inkscape:connector-curvature="0" /></g></g><path
         d="m 4096.44,3427.08 c -12.83,21.84 -26.13,39.9 -39.32,55.04 l 9.93,12.7 c -21.05,34.98 -42.87,39.61 -42.87,39.61 l -10.31,-11.91 c -25.91,19.18 -48.48,27.78 -62.34,31.58 -76.99,-89.24 -471.07,-559.23 -837.78,-905.51 39.23,-27.79 95.74,-74.81 152.27,-146.25 156.63,172.43 708.63,780.78 830.42,924.74"
         style="fill:#231f20;fill-opacity:1;fill-rule:nonzero;stroke:none"
         id="path34"
         inkscape:connector-curvature="0" /><path
         d="m 3953.84,3412.52 -59.02,14.81 18.66,-57.54 62.48,-18.53 -22.12,61.26"
         style="fill:#858a9d;fill-opacity:1;fill-rule:nonzero;stroke:none"
         id="path36"
         inkscape:connector-curvature="0" /><path
         d="m 3900.18,3351.78 -59.01,14.79 18.65,-57.53 62.49,-18.53 -22.13,61.27"
         style="fill:#858a9d;fill-opacity:1;fill-rule:nonzero;stroke:none"
         id="path38"
         inkscape:connector-curvature="0" /><path
         d="m 3846.53,3291.03 -59.03,14.8 18.66,-57.54 62.49,-18.53 -22.12,61.27"
         style="fill:#858a9d;fill-opacity:1;fill-rule:nonzero;stroke:none"
         id="path40"
         inkscape:connector-curvature="0" /><path
         d="m 3792.87,3230.28 -59.02,14.8 18.67,-57.54 62.48,-18.52 -22.13,61.26"
         style="fill:#858a9d;fill-opacity:1;fill-rule:nonzero;stroke:none"
         id="path42"
         inkscape:connector-curvature="0" /><path
         d="m 3739.21,3169.53 -59.01,14.8 18.65,-57.54 62.49,-18.53 -22.13,61.27"
         style="fill:#858a9d;fill-opacity:1;fill-rule:nonzero;stroke:none"
         id="path44"
         inkscape:connector-curvature="0" /><path
         d="m 3684.94,3109.45 -58.5,14.5 18.33,-57 61.94,-18.19 -21.77,60.69"
         style="fill:#858a9d;fill-opacity:1;fill-rule:nonzero;stroke:none"
         id="path46"
         inkscape:connector-curvature="0" /><path
         d="m 3630.66,3049.37 -57.98,14.2 18.02,-56.45 61.39,-17.87 -21.43,60.12"
         style="fill:#858a9d;fill-opacity:1;fill-rule:nonzero;stroke:none"
         id="path48"
         inkscape:connector-curvature="0" /><path
         d="m 3576.39,2989.29 -57.47,13.91 17.7,-55.92 60.84,-17.53 -21.07,59.54"
         style="fill:#858a9d;fill-opacity:1;fill-rule:nonzero;stroke:none"
         id="path50"
         inkscape:connector-curvature="0" /><path
         d="m 3522.13,2929.21 -56.97,13.61 17.38,-55.39 60.3,-17.18 -20.71,58.96"
         style="fill:#858a9d;fill-opacity:1;fill-rule:nonzero;stroke:none"
         id="path52"
         inkscape:connector-curvature="0" /><path
         d="m 3467.56,2869.93 -56.87,13.94 17.06,-55.49 60.18,-17.54 -20.37,59.09"
         style="fill:#858a9d;fill-opacity:1;fill-rule:nonzero;stroke:none"
         id="path54"
         inkscape:connector-curvature="0" /><path
         d="m 3413.01,2810.64 -56.8,14.27 16.75,-55.58 60.08,-17.89 -20.03,59.2"
         style="fill:#858a9d;fill-opacity:1;fill-rule:nonzero;stroke:none"
         id="path56"
         inkscape:connector-curvature="0" /><path
         d="m 3358.46,2751.35 -56.71,14.6 16.41,-55.68 59.99,-18.22 -19.69,59.3"
         style="fill:#858a9d;fill-opacity:1;fill-rule:nonzero;stroke:none"
         id="path58"
         inkscape:connector-curvature="0" /><path
         d="m 3303.91,2692.07 -56.63,14.93 16.1,-55.77 59.88,-18.58 -19.35,59.42"
         style="fill:#858a9d;fill-opacity:1;fill-rule:nonzero;stroke:none"
         id="path60"
         inkscape:connector-curvature="0" /><path
         d="m 3249.36,2632.79 -56.56,15.25 15.79,-55.87 59.77,-18.92 -19,59.54"
         style="fill:#858a9d;fill-opacity:1;fill-rule:nonzero;stroke:none"
         id="path62"
         inkscape:connector-curvature="0" /><path
         d="m 3170.64,2552.39 c -151.03,145.75 -181.25,108.68 -181.25,108.68 -34.59,-35.84 81.15,-138.46 121.51,-172.34 34.88,-38.73 140.22,-149.47 174.81,-113.62 0,0 35.97,31.53 -115.07,177.28"
         style="fill:#858a9d;fill-opacity:1;fill-rule:nonzero;stroke:none"
         id="path64"
         inkscape:connector-curvature="0" /><path
         d="m 3161.45,2543.2 c -151.04,145.75 -181.27,108.68 -181.27,108.68 -34.59,-35.85 81.15,-138.46 121.53,-172.35 34.86,-38.73 140.21,-149.47 174.8,-113.62 0,0 35.97,31.53 -115.06,177.29"
         style="fill:#231f20;fill-opacity:1;fill-rule:nonzero;stroke:none"
         id="path66"
         inkscape:connector-curvature="0" /><path
         d="m 3144.18,2524.62 c -89.13,86 -100.18,71.15 -100.18,71.15 -13.33,-13.81 54.04,-75.32 77.35,-95.86 21.08,-22.31 84.16,-86.68 97.49,-72.87 0,0 14.46,11.59 -74.66,97.58"
         style="fill:#858a9d;fill-opacity:1;fill-rule:nonzero;stroke:none"
         id="path68"
         inkscape:connector-curvature="0" /><path
         d="m 3137.82,2518.71 c -89.12,86.01 -100.18,71.15 -100.18,71.15 -13.32,-13.81 54.04,-75.32 77.34,-95.86 21.09,-22.3 84.2,-86.68 97.5,-72.87 0,0 14.46,11.59 -74.66,97.58"
         style="fill:#231f20;fill-opacity:1;fill-rule:nonzero;stroke:none"
         id="path70"
         inkscape:connector-curvature="0" /><g
         id="g72"><g
           id="g74"
           clip-path="url(#clipPath78)"><path
             d="M 194.008,68.0273 C 313.996,141.242 1427.46,780.832 3064.89,2374 l 0.8,0.42 c -37.15,36.16 -94.01,90.51 -94.01,90.51 0,0 -1375.52,-1424.25 -2911.6409,-2408.4339 C 147.285,42.2969 194.008,68.0273 194.008,68.0273"
             style="fill:url(#linearGradient90);fill-opacity:1;fill-rule:nonzero;stroke:none"
             id="path92"
             inkscape:connector-curvature="0" /></g></g><g
         id="g94"><g
           id="g96"
           clip-path="url(#clipPath100)"><path
             d="m 3066.49,2565.22 -94.81,-100.29 c 0,0 108.99,-104.16 123.75,-120.04 l 99.63,96.96 c 0,0 -67.75,84.15 -128.57,123.37"
             style="fill:url(#linearGradient108);fill-opacity:1;fill-rule:nonzero;stroke:none"
             id="path110"
             inkscape:connector-curvature="0" /></g></g><g
         id="g112"><g
           id="g114"
           clip-path="url(#clipPath118)"><path
             d="m 224.531,38.918 c 119.981,73.211 1131.019,626.328 2870.899,2305.972 -4.1,4.41 -15.47,15.63 -29.74,29.53 l -0.8,-0.42 C 1427.46,780.832 313.996,141.242 194.008,68.0273 c 0,0 -46.723,-25.7304 -133.9689,-11.5312 C 40.0547,43.6836 20.0508,30.9297 0,18.2617 c 0,0 104.547,-52.5586 224.531,20.6563"
             style="fill:url(#linearGradient126);fill-opacity:1;fill-rule:nonzero;stroke:none"
             id="path128"
             inkscape:connector-curvature="0" /></g></g><g
         id="g130"><g
           id="g132"
           clip-path="url(#clipPath136)"><path
             d="m 3095.43,2344.89 c -0.97,1.05 -2.38,2.5 -4.11,4.25 -19.51,-13.31 -38.06,-31.19 -56.47,-39.32 -29.89,-13.18 -43.06,-30.56 -62.02,-56.02 -19.1,-25.62 -42.8,-35.64 -65.8,-55.76 -21.46,-18.8 -31.12,-42.58 -54.79,-60.41 -28.41,-21.4 -49.5,-37.96 -72.13,-64.54 -20.97,-24.61 -48.66,-38.44 -70.63,-61.33 -16.01,-16.69 -31.26,-34.67 -49.74,-49.68 -33.29,-27.06 -76.38,-62.75 -104.48,-98.96 -14.98,-4.96 -28.9,-13.86 -41.15,-30.35 -18.59,-25 -38.94,-60.66 -66.26,-77.3 -25.21,-15.31 -47.06,-21.37 -67.72,-43.09 -18.65,-19.59 -37.3,-42.04 -57.24,-60.15 -24.32,-22.13 -52.03,-32.02 -72.48,-59.46 -18.83,-25.31 -43.43,-41.54 -68.9,-60.58 -20.94,-15.67 -33.51,-36.08 -52.37,-53.08 -23.27,-20.93 -44.59,-36.79 -65.39,-60.77 -22.59,-25.98 -62.18,-33.89 -88.21,-57.54 -21.04,-19.13 -33.31,-38.98 -57.02,-56.42 -24.54,-18.05 -47.85,-34.22 -70.26,-55.04 -18.25,-16.96 -34.97,-36.52 -53.81,-50.02 -18.95,-13.57 -41.5,-28.96 -55.94,-48.54 -7.73,-10.48 -10.76,-21.1 -21.53,-27.84 -12.38,-7.75 -29.92,-6.75 -43.1,-13.94 -22.71,-12.39 -30.76,-33.47 -44.16,-53.05 -20.76,-6.06 -42.47,-12.17 -59.26,-23.2 -46.37,-30.41 -71.97,-82.172 -120.27,-109.332 -46.19,-25.965 -84.89,-65.203 -132.63,-92.129 -46.45,-26.191 -74.69,-74.578 -119.45,-102.644 -20.67,-12.969 -43.45,-20.403 -61,-36.661 -17.02,-15.761 -30.6,-34.394 -51.1,-47.472 -18.45,-11.778 -41.68,-18.535 -57.85,-33.008 -19.02,-17.012 -35.512,-33.984 -56.758,-49.453 -24.785,-18.028 -50.89,-30.196 -71.304,-52.547 -25.762,-28.184 -61.532,-47.59 -92.075,-72.434 -0.796,-0.437 -1.558,-0.898 -2.375,-1.347 -17.257,-9.551 -35.8,-11.922 -52.668,-21.239 -21.457,-11.867 -36.828,-35.851 -58.085,-49.855 -20.438,-13.465 -41.29,-22.305 -59.805,-39.004 -19.375,-17.48 -40.027,-29.109 -67.008,-39.043 C 525.559,270.918 500.992,234.277 462.949,213.039 444.387,202.688 431.516,190.273 412.93,178.527 392.086,165.371 369.98,160.371 351.25,144.609 332.809,129.082 323.176,115.645 301.523,106.152 279.688,96.5938 263.766,89.4453 246.707,75.0703 228.879,60.0586 208.184,49.875 192.922,32.7539 c -3.524,-3.9453 -7.809,-9.375 -12.274,-15.6641 14.27,5.5665 28.961,12.7266 43.883,21.8282 119.981,73.211 1131.019,626.328 2870.899,2305.972"
             style="fill:url(#linearGradient144);fill-opacity:1;fill-rule:nonzero;stroke:none"
             id="path146"
             inkscape:connector-curvature="0" /></g></g></g></g></svg>